<svg width="25" height="26" fill="none" xmlns="http://www.w3.org/2000/svg"><g clip-path="url(#clip0)"><path d="M12.5 25.955c6.904 0 12.5-5.596 12.5-12.5 0-6.903-5.596-12.5-12.5-12.5S0 6.552 0 13.455c0 6.904 5.596 12.5 12.5 12.5z" fill="#4D76A1"/><path fill-rule="evenodd" clip-rule="evenodd" d="M12.028 18.938h.98s.297-.033.449-.196c.139-.15.134-.43.134-.43s-.019-1.317.592-1.511c.603-.191 1.376 1.272 2.196 1.835.62.426 1.09.332 1.09.332l2.193-.03s1.146-.07.603-.973c-.045-.073-.317-.666-1.63-1.885-1.375-1.276-1.19-1.07.465-3.276 1.008-1.344 1.411-2.165 1.285-2.516-.12-.335-.861-.246-.861-.246l-2.468.015s-.183-.025-.319.056c-.132.08-.218.265-.218.265s-.39 1.04-.911 1.925c-1.1 1.866-1.539 1.964-1.718 1.848-.418-.27-.314-1.085-.314-1.663 0-1.809.274-2.563-.534-2.758-.268-.065-.466-.108-1.152-.115-.88-.009-1.626.003-2.048.21-.28.137-.497.444-.365.461.163.022.532.1.728.367.253.344.244 1.117.244 1.117s.146 2.128-.339 2.393c-.333.181-.789-.19-1.769-1.882-.502-.867-.88-1.826-.88-1.826s-.074-.18-.204-.275a1.024 1.024 0 00-.38-.153l-2.345.015s-.352.01-.481.163c-.115.136-.01.418-.01.418s1.837 4.296 3.916 6.46c1.906 1.985 4.07 1.855 4.07 1.855z" fill="#fff"/></g><defs><clipPath id="clip0"><path fill="#fff" transform="translate(0 .955)" d="M0 0h25v25H0z"/></clipPath></defs></svg>